# xmcd
#
# Track frame offsets:
# 150
# 14293
# 30462
# 47851
# 62074
# 76225
# 94806
# 112290
# 129298
# 148087
# 163326
# 181048
# 198739
# 213943
# 226831
# 244093
# 261521
#
# Disc length: 3705 seconds
#
#
# Revision: 0
# Processed by: cddbd v1.5.2PL0 Copyright (c) Steve Scherf et al.
# Submitted via: FreeRIP 2.945 
#
DISCID=f10e7711
DTITLE=ditka haberl - vse je igra
DYEAR=2006
DGENRE=Vocal
TTITLE0=vse je igra
TTITLE1=nikoli ne vem
TTITLE2=ljubimec brez imena
TTITLE3=ljubezen v f-molu
TTITLE4=nad mestom se dani
TTITLE5=nenadoma
TTITLE6=za nas je dovoljena ljubav
TTITLE7=ali je v tebi srce
TTITLE8=veruj mi
TTITLE9=zaljubljena
TTITLE10=kot nekdo, ki imel me bo rad
TTITLE11=ko sem zaljubljena
TTITLE12=gledam kako spavas
TTITLE13=ptica brez kril
TTITLE14=samo nasmeh je bolj grenak
TTITLE15=v meni ziv je smeh
TTITLE16=dan ljubezni
EXTD=
EXTT0=
EXTT1=
EXTT2=
EXTT3=
EXTT4=
EXTT5=
EXTT6=
EXTT7=
EXTT8=
EXTT9=
EXTT10=
EXTT11=
EXTT12=
EXTT13=
EXTT14=
EXTT15=
EXTT16=
PLAYORDER=
